<?xml version="1.0" standalone="no"?>
<!DOCTYPE svg PUBLIC "-//W3C//DTD SVG 20010904//EN"
 "http://www.w3.org/TR/2001/REC-SVG-20010904/DTD/svg10.dtd">
<svg version="1.0" xmlns="http://www.w3.org/2000/svg"
 width="448.000000pt" height="135.000000pt" viewBox="0 0 448.000000 135.000000"
 preserveAspectRatio="xMidYMid meet">

<g transform="translate(0.000000,135.000000) scale(0.100000,-0.100000)"
fill="#000000" stroke="none">
<path d="M0 1292 l0 -57 18 34 c10 19 33 42 52 52 31 17 141 18 2164 19 2056
0 2132 0 2166 -18 72 -38 70 -21 70 -650 0 -481 -2 -569 -15 -596 -31 -65 35
-60 -1025 -66 l-965 -5 1008 -3 1007 -2 0 675 0 675 -2240 0 -2240 0 0 -58z"/>
<path d="M81 1296 c-51 -28 -50 -21 -51 -628 l0 -568 29 -32 c27 -30 34 -33
104 -36 42 -2 91 1 111 8 68 22 66 4 66 640 l0 572 -29 29 c-28 28 -33 29
-118 29 -54 -1 -97 -6 -112 -14z m157 -86 c27 0 32 -4 32 -25 0 -21 -5 -25
-32 -25 -17 0 -51 -11 -75 -25 l-43 -26 0 26 c0 14 4 25 8 25 5 0 17 6 27 14
19 14 19 15 -8 27 -18 8 -27 20 -27 36 l0 24 43 -26 c24 -14 58 -25 75 -25z
m32 -141 c0 -11 -9 -19 -22 -21 -15 -2 -24 -11 -26 -25 -3 -19 1 -23 22 -23
19 0 26 -5 26 -20 0 -21 -1 -21 -97 -24 l-53 -1 0 56 c0 30 5 60 11 66 6 6 39
11 75 11 55 0 64 -3 64 -19z m-120 -189 c0 -29 4 -40 15 -40 10 0 15 11 15 35
0 24 5 35 15 35 10 0 15 -11 15 -35 0 -24 5 -35 15 -35 11 0 15 11 15 40 0 29
4 40 15 40 12 0 15 -13 15 -60 l0 -60 -75 0 -75 0 0 60 c0 47 3 60 15 60 11 0
15 -11 15 -40z m120 -177 c0 -17 -11 -25 -57 -41 -32 -11 -66 -23 -75 -27 -14
-6 -18 -2 -18 17 0 21 7 26 53 38 l52 13 -52 15 c-44 12 -53 18 -53 37 l0 23
75 -26 c62 -22 75 -31 75 -49z m0 -113 c0 -18 -7 -20 -75 -20 -68 0 -75 2 -75
20 0 18 7 20 75 20 68 0 75 -2 75 -20z m0 -110 l0 -60 -75 0 c-68 0 -75 2 -75
20 0 18 7 20 60 20 l60 0 0 40 c0 29 4 40 15 40 12 0 15 -13 15 -60z m-120
-130 c0 -29 4 -40 15 -40 10 0 15 11 15 35 0 24 5 35 15 35 10 0 15 -11 15
-35 0 -24 5 -35 15 -35 11 0 15 11 15 40 0 29 4 40 15 40 12 0 15 -14 15 -65
l0 -65 -75 0 -75 0 0 65 c0 51 3 65 15 65 11 0 15 -11 15 -40z m100 -140 c15
-15 20 -33 20 -70 l0 -50 -75 0 -75 0 0 50 c0 62 23 90 75 90 22 0 43 -8 55
-20z"/>
<path d="M150 1025 c0 -16 6 -25 15 -25 9 0 15 9 15 25 0 16 -6 25 -15 25 -9
0 -15 -9 -15 -25z"/>
<path d="M162 178 c-7 -7 -12 -20 -12 -30 0 -15 8 -18 45 -18 37 0 45 3 45 18
0 24 -19 42 -45 42 -12 0 -26 -5 -33 -12z"/>
<path d="M3150 1265 l0 -45 66 0 65 0 -3 43 -3 42 -62 3 -63 3 0 -46z"/>
<path d="M3800 1266 l0 -46 46 0 45 0 -3 43 c-3 42 -3 42 -45 45 l-43 3 0 -45z"/>
<path d="M963 1260 c21 -24 27 -42 27 -79 0 -40 -7 -56 -44 -107 -56 -74 -63
-101 -40 -149 15 -32 111 -122 120 -112 2 1 -3 21 -11 42 -24 69 -19 114 25
203 22 44 40 92 40 106 0 34 -53 91 -104 112 l-39 16 26 -32z"/>
<path d="M709 1186 c38 -40 31 -96 -18 -160 -51 -65 -53 -101 -12 -148 16 -18
43 -41 60 -51 l30 -18 -14 42 c-22 62 -19 91 20 163 19 37 35 76 35 89 0 33
-26 64 -70 87 -51 26 -58 25 -31 -4z"/>
<path d="M1232 1171 c26 -49 18 -89 -31 -151 -44 -56 -49 -76 -26 -119 13 -27
94 -95 102 -87 2 2 -1 15 -7 30 -20 54 -12 113 25 183 23 44 33 74 29 87 -9
30 -52 73 -84 84 l-27 10 19 -37z"/>
<path d="M1576 1179 c-46 -36 -56 -69 -56 -182 l0 -105 -104 -56 c-57 -32
-118 -70 -137 -86 l-34 -29 31 -1 31 0 -32 -34 c-62 -66 -53 -116 31 -163 21
-13 32 -23 23 -23 -22 0 -94 54 -115 85 -20 30 -14 88 12 116 17 19 9 19 -321
19 l-338 0 -53 50 c-55 52 -82 61 -108 34 -26 -25 -19 -43 44 -108 l60 -63 0
-167 c0 -119 4 -176 14 -199 17 -39 71 -92 109 -106 45 -17 689 -15 730 3 39
17 92 71 106 109 6 16 11 103 11 200 l0 171 36 37 37 38 36 -20 c93 -50 212
10 215 108 1 37 0 38 -35 41 -34 3 -38 0 -55 -35 -35 -72 -114 -49 -114 33 0
28 5 34 58 57 68 31 191 77 203 77 5 0 9 -38 9 -85 0 -50 6 -99 14 -118 14
-36 69 -87 92 -87 8 0 14 -2 14 -4 0 -4 -161 -384 -194 -459 -14 -32 -26 -60
-26 -62 0 -2 13 -11 30 -20 l29 -15 69 97 c38 54 130 187 204 296 89 130 138
192 142 182 3 -8 14 -15 25 -15 19 0 17 -7 -20 -112 -22 -62 -60 -162 -84
-223 l-45 -110 22 -18 c11 -10 26 -16 32 -14 6 2 87 109 179 238 167 233 168
234 207 237 l40 3 0 51 c0 44 7 62 43 117 l42 65 3 -38 c4 -48 -3 -68 -143
-386 -157 -358 -176 -418 -137 -453 24 -22 32 -21 32 2 0 40 46 165 140 376
54 121 101 230 104 243 6 18 15 22 47 22 l39 0 -16 -26 c-16 -24 -16 -26 4
-46 17 -18 23 -19 36 -8 20 16 21 59 1 66 -13 5 -15 34 -14 173 l0 166 44
-120 c25 -66 52 -139 61 -162 l16 -43 54 0 54 0 0 256 0 255 -42 -3 -43 -3 2
-160 c2 -88 0 -155 -3 -150 -3 6 -29 78 -57 160 l-52 150 -60 0 -60 0 -5 -110
c-4 -95 -8 -115 -29 -145 -58 -84 -55 -89 -61 91 -5 178 -6 180 -66 165 l-24
-6 0 -231 0 -230 -137 -192 c-75 -106 -140 -196 -145 -202 -9 -10 19 71 89
250 l38 100 53 3 52 3 0 39 c0 34 -4 41 -24 46 -14 3 -30 3 -35 -1 -16 -9 -14
-2 19 114 17 57 30 114 30 126 0 23 -29 43 -39 27 -3 -5 -22 -33 -41 -63 l-35
-54 -3 138 -3 138 -42 -3 -42 -3 -3 -204 -2 -203 -162 -232 c-89 -127 -165
-235 -170 -241 -5 -5 0 13 10 40 28 70 141 328 144 329 44 17 86 48 99 71 15
25 18 61 20 226 1 108 -1 201 -5 207 -9 16 -59 15 -74 0 -7 -7 -12 -42 -12
-85 0 -70 -1 -73 -19 -63 -11 5 -40 10 -65 10 l-45 0 -3 73 c-3 71 -3 72 -31
75 -47 6 -57 -12 -57 -95 0 -50 -4 -75 -12 -78 -18 -6 -219 -81 -240 -90 -16
-6 -18 0 -18 69 0 68 3 80 24 101 22 22 28 23 55 14 22 -8 33 -20 39 -42 9
-34 28 -43 68 -33 44 11 19 101 -38 136 -46 28 -136 28 -172 -1z m498 -165
c11 -4 16 -19 16 -45 0 -49 -57 -199 -75 -199 -7 0 -23 12 -34 26 -18 23 -21
41 -21 120 0 88 1 93 23 97 36 7 74 7 91 1z m272 -165 c-9 -22 -15 -27 -15
-16 -1 21 18 61 25 54 3 -3 -2 -20 -10 -38z m-826 -27 c0 -4 -22 -29 -48 -55
-48 -47 -50 -48 -103 -45 l-54 3 90 52 c87 51 115 62 115 45z m-849 -410 c1
-26 1 -51 0 -55 -1 -4 3 -17 9 -27 9 -16 21 -20 70 -20 78 0 110 -28 74 -64
-11 -12 -35 -16 -84 -16 -59 0 -73 4 -99 26 -52 43 -70 165 -31 204 16 16 25
18 40 10 15 -8 20 -22 21 -58z"/>
<path d="M3150 1178 c-9 -21 -100 -457 -100 -478 0 -6 23 -10 50 -10 37 0 50
4 50 15 0 7 5 37 11 65 l11 50 49 0 c36 0 49 -4 49 -15 0 -7 5 -37 11 -65 l11
-50 42 0 c24 0 45 2 48 5 9 9 -93 489 -105 497 -7 4 -36 8 -65 8 -45 0 -54 -3
-62 -22z m86 -170 c19 -99 19 -98 -19 -98 l-34 0 15 90 c8 50 17 88 20 86 2
-3 10 -38 18 -78z"/>
<path d="M3441 1186 c-8 -9 -11 -85 -9 -252 l3 -239 48 -3 47 -3 0 100 c0 92
2 101 19 101 15 0 26 -20 52 -97 l34 -98 49 -3 c37 -2 47 0 44 10 -3 7 -20 58
-38 114 l-33 101 21 21 c28 28 35 59 30 137 -4 74 -22 100 -77 115 -55 15
-176 13 -190 -4z m167 -83 c16 -22 16 -84 -1 -107 -9 -12 -23 -17 -47 -14
l-35 3 -3 64 c-2 45 1 67 10 73 18 11 60 1 76 -19z"/>
<path d="M3807 1194 c-4 -4 -7 -119 -7 -255 l0 -247 28 -4 c66 -9 63 -23 60
255 l-3 252 -35 3 c-20 2 -39 0 -43 -4z"/>
<path d="M4051 1183 c-8 -15 -101 -463 -101 -486 0 -4 21 -7 47 -5 52 3 46 -6
69 106 4 19 11 22 53 22 l49 0 6 -47 c12 -82 13 -83 62 -83 37 0 44 3 44 20 0
42 -93 475 -104 482 -6 4 -34 8 -63 8 -40 0 -55 -4 -62 -17z m88 -192 c9 -60
9 -76 -1 -83 -7 -4 -19 -6 -26 -3 -8 3 -18 5 -23 5 -4 0 -7 6 -5 13 2 6 10 47
17 90 14 89 21 85 38 -22z"/>
<path d="M3572 656 c-9 -20 -7 -27 7 -40 23 -21 28 -20 47 9 13 20 14 28 4 40
-19 22 -45 18 -58 -9z"/>
<path d="M3650 664 c0 -4 10 -24 22 -45 21 -38 21 -40 5 -114 -30 -138 -129
-295 -187 -295 -21 0 -22 3 -17 39 2 21 31 98 62 170 l58 132 -21 22 c-14 13
-25 18 -30 12 -5 -6 -33 -66 -62 -135 -63 -149 -70 -160 -120 -195 -80 -55
-172 -52 -185 6 -7 30 1 86 14 93 3 2 44 10 89 16 107 14 109 15 132 61 25 47
26 112 3 134 -83 84 -216 -9 -285 -200 -24 -65 -101 -155 -132 -155 -16 0 -17
6 -11 45 10 69 40 148 90 241 44 80 45 83 25 94 -17 9 -26 4 -64 -30 -24 -22
-70 -74 -102 -115 -32 -41 -59 -73 -61 -71 -2 1 13 41 32 89 36 89 37 112 3
123 -23 7 -19 12 -42 -56 -45 -132 -96 -234 -138 -277 -23 -24 -50 -43 -60
-43 -32 0 -20 59 41 200 51 117 57 138 46 155 -26 42 -39 28 -97 -112 -71
-173 -76 -200 -48 -236 28 -36 68 -36 111 1 18 15 30 21 25 14 -10 -16 11 -42
33 -42 9 0 45 44 84 103 38 56 86 122 108 147 39 43 39 44 23 11 -52 -107 -67
-199 -38 -239 25 -36 61 -28 111 23 48 51 53 53 53 26 0 -11 14 -31 31 -45 56
-47 157 -33 232 33 l36 32 3 -33 c4 -39 41 -64 81 -54 65 16 161 170 192 310
l17 74 31 -13 c18 -8 31 -20 29 -27 -2 -7 -25 -60 -52 -118 -82 -176 -83 -179
-65 -207 23 -35 73 -31 127 10 l43 33 15 -31 c31 -63 71 -40 209 120 23 28 40
41 36 30 -4 -11 -12 -44 -18 -73 -14 -66 2 -105 47 -110 22 -3 37 6 72 42 24
25 51 60 60 78 13 25 2 17 -47 -35 -75 -78 -104 -88 -93 -29 9 46 41 132 88
236 28 60 34 82 25 92 -16 20 -37 17 -44 -5 -6 -19 -7 -19 -42 5 -43 29 -46
29 -98 5 -63 -28 -116 -97 -190 -246 -40 -80 -145 -160 -145 -111 0 8 36 86
79 174 90 181 90 183 0 196 -34 5 -54 16 -79 41 -32 33 -50 43 -50 29z m490
-109 c11 -13 3 -28 -46 -93 -33 -42 -94 -113 -137 -157 -70 -71 -78 -77 -72
-50 10 48 71 168 114 225 61 81 113 109 141 75z m-745 -28 c3 -12 0 -40 -7
-62 -15 -46 -50 -63 -131 -64 l-48 -1 18 31 c10 17 39 51 65 75 54 50 94 59
103 21z"/>
<path d="M0 58 l0 -58 128 2 127 2 -92 5 c-100 7 -124 19 -149 76 -13 29 -13
29 -14 -27z"/>
<path d="M803 3 c285 -2 749 -2 1030 0 282 1 49 2 -518 2 -566 0 -797 -1 -512
-2z"/>
<path d="M2378 3 c7 -3 16 -2 19 1 4 3 -2 6 -13 5 -11 0 -14 -3 -6 -6z"/>
<path d="M2423 3 c9 -2 23 -2 30 0 6 3 -1 5 -18 5 -16 0 -22 -2 -12 -5z"/>
</g>
</svg>
